PathFileType	4	(X/Y/Z)	c:/Users/goper/Files/vsCode/490R/osim_files/C12/C12_SSWS_02.trc
DataRate	CameraRate	NumFrames	NumMarkers	Units                	OrigDataRate	OrigDataStartFrame	OrigNumFrames
120.00	120.00	10	36	mm	120.0	606	1210
                Frame#	Time	LPSIS			LASIS			LTH1			LTH2			LTH3			LTH4			LLFE			LMFE			LSH1			LSH2			LSH3			LSH4			LLMAL			LMMAL			LCAL			LMTP5			LTOE			LMTP1			RPSIS			RASIS			RTH1			RTH2			RTH3			RTH4			RLFE			RMFE			RSH1			RSH2			RSH3			RSH4			RLMAL			RMMAL			RCAL			RMTP1			RTOE			RMTP5		
		X1	Y1	Z1	X2	Y2	Z2	X3	Y3	Z3	X4	Y4	Z4	X5	Y5	Z5	X6	Y6	Z6	X7	Y7	Z7	X8	Y8	Z8	X9	Y9	Z9	X10	Y10	Z10	X11	Y11	Z11	X12	Y12	Z12	X13	Y13	Z13	X14	Y14	Z14	X15	Y15	Z15	X16	Y16	Z16	X17	Y17	Z17	X18	Y18	Z18	X19	Y19	Z19	X20	Y20	Z20	X21	Y21	Z21	X22	Y22	Z22	X23	Y23	Z23	X24	Y24	Z24	X25	Y25	Z25	X26	Y26	Z26	X27	Y27	Z27	X28	Y28	Z28	X29	Y29	Z29	X30	Y30	Z30	X31	Y31	Z31	X32	Y32	Z32	X33	Y33	Z33	X34	Y34	Z34	X35	Y35	Z35	X36	Y36	Z36

606	5.04167	49.97307	1021.45117	363.21170	-130.64099	985.20483	405.93106	-130.52950	707.48065	461.57028	-151.93643	668.55597	456.04779	-186.68233	734.34723	458.92429	-202.13712	691.90326	454.71567	-251.69485	524.99756	407.12955	-243.81541	517.38007	283.46240	-222.96349	414.91721	426.96848	-240.24709	370.82364	434.30893	-280.78271	431.60904	420.93167	-289.34512	384.95529	425.69464	-351.33325	98.59457	401.40607	-360.75162	103.89651	319.10391	-292.75021	59.03895	364.40283	-493.22913	80.87912	422.72263	-531.04559	125.56813	351.22287	-511.69214	81.58820	316.03351	63.43457	1026.86255	252.00252	-111.08572	990.01788	147.09293	65.56110	732.60425	108.60507	72.65191	688.18311	116.53095	5.02732	714.69482	106.02343	21.25598	670.48792	113.21854	123.51451	516.39752	151.52541	107.94218	510.48648	284.20932	221.09843	456.33316	135.23340	240.32027	417.66391	128.85313	168.92393	421.14975	140.11421	196.53865	388.94589	131.95842	367.29214	153.44566	175.23193	347.54398	159.63010	258.52335	449.23801	143.66916	215.88873	262.01447	48.69670	260.36719	218.28285	58.23282	228.75475	257.64703	35.86628	153.93265
607	5.05000	36.09542	1021.69061	365.06458	-144.02512	985.33636	407.08502	-142.98203	708.35803	461.45532	-163.91966	669.18445	455.87756	-199.54800	734.55438	459.12585	-214.83328	692.07513	455.11612	-262.15860	525.08514	408.90375	-253.20311	516.62244	284.21985	-234.99667	415.98181	426.80222	-251.96211	371.74637	434.33575	-292.84796	432.36218	421.13785	-301.24692	385.59290	426.04926	-355.75150	97.43430	401.87015	-365.40710	101.99413	319.33218	-295.32761	60.49386	365.16898	-497.30099	73.16441	421.83270	-538.32660	115.60254	351.60925	-514.81134	73.24923	315.22592	48.88033	1026.62280	253.08905	-125.54135	989.47644	148.26283	51.26620	732.22150	109.79265	58.21894	687.67712	117.54835	-9.35861	714.28137	107.04480	7.45015	670.26581	113.66030	109.03375	515.90509	151.38036	93.68787	509.42819	284.11758	208.20056	458.22491	134.99713	228.14044	419.86716	128.41968	156.57378	421.60510	139.56654	185.08578	390.25607	131.27142	361.69406	158.01292	174.42877	341.56436	164.23674	257.25034	443.40308	152.10344	214.97450	260.71310	49.17507	260.20587	217.53058	58.47548	228.69539	257.30551	35.74719	153.35100
608	5.05833	22.25103	1022.44366	366.77930	-157.58647	985.76038	408.07123	-154.77943	709.43872	461.69202	-175.06960	670.00299	456.09387	-211.64024	734.83490	459.65106	-225.31329	691.60303	455.14484	-273.30289	525.88702	410.49390	-261.09790	515.87384	284.81406	-247.17406	417.81073	428.20181	-263.55035	373.43015	435.79340	-305.17017	433.27280	421.63773	-313.07840	386.29779	426.57230	-360.13013	96.23200	402.50348	-368.18881	101.14166	320.14679	-297.68158	61.99242	365.77249	-500.47714	66.91601	421.96014	-542.49402	107.52412	351.14551	-517.44604	66.66756	314.92078	34.57100	1027.11609	254.33246	-139.73566	989.25763	149.45396	36.32320	731.79785	111.05178	43.23038	687.31110	118.49535	-24.25574	714.03900	108.04482	-7.48342	670.06537	114.54600	93.73742	515.42896	150.97008	78.66321	508.54401	283.97156	194.12151	460.14542	134.51749	215.09288	422.25787	127.81016	143.12210	422.07950	139.06833	172.87708	391.57434	130.49174	355.23679	163.66508	173.07474	334.67902	168.97960	255.87498	436.67230	161.14015	214.16261	259.29099	49.70630	260.17755	216.60991	58.88443	228.50946	256.86682	35.49384	153.38007
609	5.06667	8.40816	1023.57257	368.38333	-170.89313	986.54047	408.97507	-166.01889	710.57300	462.34201	-185.74686	670.94037	456.82462	-223.36642	735.31671	460.37741	-236.42043	691.97357	455.94080	-285.29565	527.50098	411.62457	-268.83908	515.59229	286.05652	-259.41779	419.67908	430.47211	-274.95422	375.00763	438.05902	-317.87378	433.33887	421.13092	-324.37668	386.55008	427.13663	-363.96271	95.49045	403.07584	-371.19427	100.63751	321.53226	-299.73340	63.54824	366.12036	-502.76456	61.26161	422.93600	-545.13983	101.73232	351.77371	-519.93872	60.87736	315.42874	20.23372	1027.85669	255.51326	-153.56491	989.29004	150.62129	20.76408	731.46741	112.28390	27.58513	686.87933	119.45710	-39.83836	713.88971	109.24644	-23.22269	669.67529	115.43214	77.52574	514.88037	150.44600	62.98561	507.53937	283.51065	179.14366	461.98761	133.81027	201.29851	424.63214	127.18007	128.98369	422.68695	137.89203	159.28410	393.01892	129.60033	347.80847	169.49931	171.75949	326.93298	173.89697	254.42888	428.74808	170.69298	213.46605	257.70712	50.35493	260.30667	217.02692	58.52068	228.64386	256.09702	35.89670	153.54767
610	5.07500	-5.61722	1025.10718	369.69696	-184.17180	987.60950	409.98712	-177.55165	711.90070	463.36707	-197.05809	671.97424	458.10278	-235.02603	736.03992	461.43790	-247.62956	692.71301	457.12851	-298.16483	529.50830	411.99927	-277.49945	516.32886	287.36200	-271.33865	421.25510	432.88135	-286.36896	375.97003	440.38464	-329.76160	433.46677	421.85547	-335.34940	386.42703	427.89981	-366.95285	95.15959	403.61938	-374.71628	100.44422	322.28293	-301.63531	65.05594	366.46622	-504.84351	55.33773	423.69440	-548.39087	95.42430	353.38849	-522.12018	55.75263	316.35294	5.95179	1028.83411	256.55212	-169.16237	990.03137	152.25877	4.74593	731.08545	113.32380	11.33576	686.40070	120.23792	-56.05936	713.75281	110.46974	-39.55790	669.47272	116.28753	60.29985	514.22650	149.72539	46.68925	506.42197	282.22543	163.24657	463.92392	133.05675	186.49200	427.00464	126.34726	114.59380	423.28250	136.90919	145.35442	394.58295	128.61931	339.77039	175.84480	170.17433	318.02130	179.04521	252.90703	419.63254	180.74165	212.84059	255.73718	51.29368	260.57587	216.30734	59.05347	229.04749	255.40215	36.17399	153.53165
611	5.08333	-19.15538	1027.13330	371.02374	-197.08504	989.12830	411.04315	-189.42007	713.71674	464.61417	-208.46211	673.73169	459.72171	-246.78149	737.48755	462.68311	-259.27896	694.09033	458.58438	-311.39996	531.11957	412.05896	-287.47775	517.99695	288.03305	-282.85464	422.74277	435.81128	-296.73792	377.40308	443.05890	-341.07886	433.60672	422.94275	-345.81131	386.58536	429.20288	-369.76123	94.81456	404.20947	-378.45755	100.35409	322.12704	-302.58203	66.74144	366.45273	-506.48898	50.55798	424.40500	-552.29950	88.73310	354.65442	-523.60480	51.45681	316.81476	-7.78552	1030.39807	257.46527	-183.33673	990.90179	153.94136	-11.81648	730.63373	114.14315	-5.48657	685.89069	120.86581	-72.84265	713.64465	111.62919	-56.54368	669.35052	117.11975	42.23867	513.46265	148.65689	28.79265	505.03372	280.86179	146.36742	465.77292	132.17760	170.04460	430.15701	125.74182	98.64335	423.81345	135.70154	130.44116	396.10376	127.16039	330.27371	181.99007	168.74762	307.39044	183.17053	249.97031	408.97861	191.38167	212.22447	253.68159	52.19213	260.78403	215.46259	59.66911	229.33270	254.73679	36.67447	153.46988
612	5.09167	-32.37371	1029.61047	371.86392	-209.73354	991.02533	412.19312	-201.29533	715.96606	466.07288	-220.33517	675.87463	461.53046	-258.84167	739.42072	464.17453	-271.28656	696.21765	460.24588	-324.32062	532.39728	412.33624	-297.32886	519.59583	289.58545	-293.46884	424.17172	437.97260	-306.62531	378.61188	445.10925	-351.59421	433.87921	424.07962	-355.49683	386.70053	430.26376	-371.98495	94.61133	404.61719	-381.15851	100.34798	322.00922	-304.38544	67.35459	366.82828	-507.71301	47.04721	424.71127	-554.10852	83.82493	355.16986	-524.54010	48.18213	316.70880	-21.84454	1031.78650	258.05655	-197.50299	992.07349	155.89651	-28.94192	730.02191	114.74751	-23.05527	685.17151	121.25787	-90.06451	713.70239	112.62674	-74.15609	669.32831	117.84401	23.38527	512.58435	147.09125	10.59710	503.91003	279.85809	128.76503	467.58115	131.14856	153.62401	433.02127	124.43760	82.09457	424.51050	133.88948	114.79536	397.47971	125.45815	319.84662	188.31033	167.19928	296.15512	187.94714	248.28188	396.98096	202.58511	211.62840	250.94194	53.88636	260.90576	213.94685	60.37551	229.59702	253.87814	37.47866	153.49477
613	5.10000	-45.31719	1032.39771	372.43161	-222.43283	993.38947	413.44373	-213.59779	718.29999	467.75235	-233.00926	678.30341	463.22672	-271.18900	741.89154	465.62152	-283.79428	698.81104	461.70612	-336.95099	533.67181	413.00140	-310.12708	521.86792	290.29288	-303.34827	425.66922	439.86945	-315.57718	379.84851	446.93103	-361.53079	434.15479	424.98779	-364.38901	386.91400	431.46509	-373.28723	94.59740	404.54288	-382.44571	100.21064	322.14893	-305.51886	67.81243	367.07007	-508.41257	45.37320	424.86694	-554.75482	81.14605	354.87134	-525.05975	46.22090	316.40152	-35.48653	1033.67322	258.56418	-211.37410	993.57312	157.90973	-46.26066	729.33032	114.98734	-40.89703	684.37701	121.36081	-107.37894	713.83057	113.33405	-92.33334	669.13177	118.43060	3.57149	511.52271	145.34090	-8.75846	502.56778	278.25082	110.31277	469.40131	129.97224	135.17032	435.24713	123.21194	64.87543	425.31787	131.65109	98.11190	399.17047	123.26502	308.19135	194.59509	165.76799	283.93060	193.35941	246.58630	383.61322	214.50308	211.09563	247.42383	56.41222	261.19312	211.43127	61.07163	229.72340	252.73427	39.10944	153.49123
614	5.10833	-57.83600	1035.39160	372.66788	-234.65291	995.95557	414.83487	-226.14998	720.45996	469.63211	-245.58578	680.63757	464.77533	-283.58398	744.67029	466.82822	-296.26810	701.31396	463.02600	-348.60468	534.85248	413.94708	-323.63849	524.05194	291.05789	-312.31638	427.15982	441.55261	-323.61157	381.12274	448.50690	-370.39841	434.40704	426.17496	-372.42038	387.14185	432.63647	-373.92215	94.74127	404.39563	-382.46112	100.21410	322.84500	-306.14185	68.32343	367.20721	-508.79318	44.45161	425.18726	-555.17188	80.18938	355.13675	-526.24091	45.63216	315.61945	-48.71600	1035.58069	258.82999	-225.10120	995.28876	160.17233	-63.73011	728.65771	114.93356	-59.15349	683.48517	121.26003	-125.73569	713.85370	114.43697	-110.95368	668.91766	118.86404	-16.29869	510.88208	143.06299	-29.03965	500.78107	276.36401	91.36517	471.42831	129.47313	117.68503	437.82263	121.99445	46.79757	425.74933	129.33136	81.21622	401.57318	120.57247	295.98123	202.02963	164.39542	271.05093	199.12686	244.95657	368.79395	226.76099	210.17514	243.48625	59.84815	260.47464	208.71420	61.62588	229.33118	251.00775	41.77306	153.29796
615	5.11667	-70.21683	1038.31128	372.59045	-246.65266	998.62805	416.64627	-238.51357	722.54541	471.68192	-258.15082	682.86078	466.35730	-295.51764	746.93500	468.37170	-308.73953	703.78925	464.42615	-359.28720	536.09406	415.18073	-336.31705	526.18921	291.87073	-320.46008	428.81796	443.16534	-330.83472	382.42303	449.84671	-378.70938	434.67923	427.53354	-379.67307	387.47528	433.82751	-374.36761	94.89314	404.43561	-382.73819	100.50341	323.93332	-306.07217	69.58799	367.76022	-509.09363	43.46526	425.64502	-555.67627	79.46875	355.37531	-526.63898	44.91141	315.72620	-61.53638	1037.56750	258.88800	-238.42950	997.07581	162.47682	-81.59518	727.85278	114.89030	-77.76523	682.56274	120.97169	-143.89656	714.12061	115.10936	-129.83849	668.84601	119.11654	-37.16962	509.51987	141.59724	-50.22803	498.61292	274.83676	71.44975	472.76376	128.51286	98.86823	440.11136	121.00399	28.12295	426.21536	127.36319	63.32504	402.95087	118.72742	282.45108	209.41742	162.98901	257.50616	205.07231	243.04161	352.77161	239.17883	208.86020	238.69054	64.21265	259.63120	204.15071	62.05657	228.45427	248.25182	45.42243	152.88196
